<?xml version="1.0" encoding="utf-8"?>
<svg version="1.1" xmlns:xlink="http://www.w3.org/1999/xlink" width="16px" height="16px" xmlns="http://www.w3.org/2000/svg">
  <g transform="matrix(1 0 0 1 -10 -10 )">
    <path d="M 14.931125 3.012625  C 15.795 2.14875  15.18275 0.66475  13.9585 0.66475  L 2.04175 0.66475  C 0.82 0.66475  0.2035 2.147  1.069125 3.012625  L 5.70775 7.65275  L 5.70775 12.5845  C 5.70775 13.0175  5.9115 13.425125  6.257875 13.73075  L 8.09175 15.07925  C 8.98775 15.7055  10.29225 15.123375  10.29225 13.979  L 10.29225 7.65275  L 14.931125 3.012625  Z M 13.959875 2  L 8.916875 7.083125  L 8.916875 13.959875  L 7.083125 12.5845  L 7.083125 7.083125  L 2.040125 2  L 13.959875 2  Z " fill-rule="nonzero" fill="#262626" stroke="none" transform="matrix(1 0 0 1 10 10 )" />
  </g>
</svg>