<?xml version="1.0" encoding="UTF-8" standalone="no"?>
<!DOCTYPE svg PUBLIC "-//W3C//DTD SVG 1.1//EN" "http://www.w3.org/Graphics/SVG/1.1/DTD/svg11.dtd">
<svg width="100%" height="100%" viewBox="0 0 128 128" version="1.1" xmlns="http://www.w3.org/2000/svg" xmlns:xlink="http://www.w3.org/1999/xlink" xml:space="preserve" xmlns:serif="http://www.serif.com/" style="fill-rule:evenodd;clip-rule:evenodd;stroke-linejoin:round;stroke-miterlimit:2;">
    <path d="M64,51.579C70.87,51.579 76.421,57.13 76.421,64C76.421,70.87 70.87,76.421 64,76.421C57.13,76.421 51.579,70.87 51.579,64C51.579,57.13 57.13,51.579 64,51.579ZM51.579,17.421C51.579,24.291 57.13,29.842 64,29.842C70.87,29.842 76.421,24.291 76.421,17.421C76.421,10.551 70.87,5 64,5C57.13,5 51.579,10.551 51.579,17.421ZM51.579,110.579C51.579,117.449 57.13,123 64,123C70.87,123 76.421,117.449 76.421,110.579C76.421,103.709 70.87,98.158 64,98.158C57.13,98.158 51.579,103.709 51.579,110.579Z" style="fill-rule:nonzero;"/>
</svg>
